<svg width="199" height="203" viewBox="0 0 199 203" fill="none" xmlns="http://www.w3.org/2000/svg">
<path d="M71.136 4.99999L86.304 4.99999L86.304 86.984L71.136 86.984L71.136 4.99999ZM50.496 32.264L50.496 5.38399L65.472 5.38399L65.472 85.544L50.496 85.544L50.496 47.432L33.888 47.432L33.888 32.264L50.496 32.264ZM21.984 68.84L27.36 68.84C33.792 68.84 41.472 67.88 46.464 66.056L46.464 80.168C41.568 82.184 32.832 83.144 25.92 83.144L6.144 83.144L6.144 6.72799L21.984 6.72799L21.984 68.84ZM154.648 37.256C147.448 51.272 129.592 56.264 108.568 56.264L108.568 43.496C121.912 43.496 132.376 42.152 138.04 36.68L108.568 36.68L108.568 24.296L142.648 24.296L142.648 24.2L142.648 18.632L108.568 18.632L108.568 5.96L158.2 5.96L158.2 21.32L158.2 22.472L170.104 22.472L170.104 4.99999L186.328 4.99999L186.328 61.352L170.104 61.352L170.104 37.256L154.648 37.256ZM189.88 73.64L184.504 88.04L148.6 75.848C139.096 83.336 125.848 86.984 112.216 86.984L112.216 72.008C127.672 72.008 141.208 66.152 144.376 55.016L160.6 58.088C159.928 60.296 159.16 62.408 158.104 64.424L189.88 73.64Z" fill="#C2C8F1"/>
<path d="M71.136 112L86.304 112L86.304 193.984L71.136 193.984L71.136 157.504L64.32 157.504L64.32 192.544L49.344 192.544L49.344 112.384L64.32 112.384L64.32 142.144L71.136 142.144L71.136 112ZM21.984 175.84L26.4 175.84C32.832 175.84 40.512 174.88 45.504 173.056L45.504 187.264C40.608 189.28 31.872 190.144 24.96 190.144L6.144 190.144L6.144 113.728L21.984 113.728L21.984 175.84Z" fill="#C2C8F1"/>
<path d="M147.267 139.849L161.413 115.599C167.542 117.216 172.982 120.179 177.733 124.491C182.483 128.802 185.935 133.921 188.088 139.849L147.267 139.849ZM136.051 149.953L122.208 125.703C125.846 122.133 130.073 119.304 134.891 117.216C139.709 115.127 144.912 114.083 150.5 114.083C151.376 114.083 152.386 114.134 153.531 114.237C154.676 114.339 155.721 114.456 156.664 114.588L136.051 149.953ZM111.397 164.604C110.993 162.987 110.672 161.337 110.435 159.653C110.198 157.969 110.081 156.251 110.083 154.5C110.083 149.717 110.858 145.204 112.407 140.96C113.957 136.717 116.146 132.843 118.975 129.341L139.385 164.604L111.397 164.604ZM139.689 193.401C133.559 191.784 128.102 188.82 123.32 184.509C118.537 180.198 115.068 175.079 112.913 169.151L153.632 169.151L139.689 193.401ZM150.5 194.917C149.49 194.917 148.462 194.849 147.416 194.715C146.371 194.58 145.378 194.445 144.438 194.31L164.949 159.047L178.792 183.297C175.154 186.867 170.928 189.696 166.113 191.784C161.298 193.872 156.094 194.917 150.5 194.917ZM182.025 179.659L161.615 144.396L189.603 144.396C190.007 146.012 190.328 147.663 190.565 149.347C190.802 151.031 190.919 152.749 190.917 154.5C190.917 159.215 190.092 163.728 188.443 168.04C186.794 172.351 184.655 176.224 182.025 179.659Z" fill="#C2C8F1"/>
</svg>
